HIERARCHY
ROOT Hips
{
	OFFSET -3.958830 18.904000 13.208200
	CHANNELS 6 Xposition Yposition Zposition Zrotation Yrotation Xrotation 
	JOINT LHipJoint
	{
		OFFSET 0.000000 0.000000 0.000000
		CHANNELS 3 Zrotation Yrotation Xrotation
		JOINT LeftUpLeg
		{
			OFFSET 1.800000 -1.400000 0.085000
			CHANNELS 3 Zrotation Yrotation Xrotation
			JOINT LeftLeg
			{
				OFFSET 2.215000 -6.000000 0.000000
				CHANNELS 3 Zrotation Yrotation Xrotation
				JOINT LeftFoot
				{
					OFFSET 2.500000 -6.900000 0.000000
					CHANNELS 3 Zrotation Yrotation Xrotation
					JOINT LeftToeBase
					{
						OFFSET 0.200000 -0.500000 1.950000
						CHANNELS 3 Zrotation Yrotation Xrotation
						End Site
						{
							OFFSET 0.000000 0.000000 0.000000
						}
					}
				}
			}
		}
	}
	JOINT RHipJoint
	{
		OFFSET 0.000000 0.000000 0.000000
		CHANNELS 3 Zrotation Yrotation Xrotation
		JOINT RightUpLeg
		{
			OFFSET -1.800000 -1.400000 0.085000
			CHANNELS 3 Zrotation Yrotation Xrotation
			JOINT RightLeg
			{
				OFFSET -2.215000 -6.000000 0.000000
				CHANNELS 3 Zrotation Yrotation Xrotation
				JOINT RightFoot
				{
					OFFSET -2.500000 -6.900000 0.000000
					CHANNELS 3 Zrotation Yrotation Xrotation
					JOINT RightToeBase
					{
						OFFSET -0.200000 -0.500000 1.950000
						CHANNELS 3 Zrotation Yrotation Xrotation
						End Site
						{
							OFFSET 0.000000 0.000000 0.000000
						}
					}
				}
			}
		}
	}
	JOINT LowerBack
	{
		OFFSET 0.000000 0.000000 0.000000
		CHANNELS 3 Zrotation Yrotation Xrotation
		JOINT Spine
		{
			OFFSET -0.087000 1.940000 -0.288900
			CHANNELS 3 Zrotation Yrotation Xrotation
			JOINT Spine1
			{
				OFFSET 0.000000 1.950000 0.060000
				CHANNELS 3 Zrotation Yrotation Xrotation
				JOINT Neck
				{
					OFFSET 0.000000 0.000000 0.000000
					CHANNELS 3 Zrotation Yrotation Xrotation
					JOINT Neck1
					{
						OFFSET 0.000000 1.600000 0.340000
						CHANNELS 3 Zrotation Yrotation Xrotation
						JOINT Head
						{
							OFFSET 0.000000 1.667000 -0.240000
							CHANNELS 3 Zrotation Yrotation Xrotation
							End Site
							{
								OFFSET 0.000000 0.000000 0.000000
							}
						}
					}
				}
				JOINT LeftShoulder
				{
					OFFSET 0.000000 0.000000 0.000000
					CHANNELS 3 Zrotation Yrotation Xrotation
					JOINT LeftArm
					{
						OFFSET 2.700000 1.550000 -0.730000
						CHANNELS 3 Zrotation Yrotation Xrotation
						JOINT LeftForeArm
						{
							OFFSET 5.450000 0.000000 0.000000
							CHANNELS 3 Zrotation Yrotation Xrotation
							JOINT LeftHand
							{
								OFFSET 3.450000 0.000000 0.000000
								CHANNELS 3 Zrotation Yrotation Xrotation
								JOINT LeftHandIndex1
								{
									OFFSET 0.750000 0.000000 0.000000
									CHANNELS 3 Zrotation Yrotation Xrotation
									End Site
									{
										OFFSET 0.000000 0.000000 0.000000
									}
								}
							}
						}
					}
				}
				JOINT RightShoulder
				{
					OFFSET 0.000000 0.000000 0.000000
					CHANNELS 3 Zrotation Yrotation Xrotation
					JOINT RightArm
					{
						OFFSET -2.700000 1.550000 -0.730000
						CHANNELS 3 Zrotation Yrotation Xrotation
						JOINT RightForeArm
						{
							OFFSET -5.450000 0.000000 0.000000
							CHANNELS 3 Zrotation Yrotation Xrotation
							JOINT RightHand
							{
								OFFSET -3.450000 0.000000 0.000000
								CHANNELS 3 Zrotation Yrotation Xrotation
								JOINT RightHandIndex1
								{
									OFFSET -0.750000 0.000000 0.000000
									CHANNELS 3 Zrotation Yrotation Xrotation
									End Site
									{
										OFFSET 0.000000 0.000000 0.000000
									}
								}
							}
						}
					}
				}
			}
		}
	}
}
MOTION
Frames: 7
Frame Time: 0.016667
-1.119290 16.851430 -2.322680 -11.636463 -22.971950 8.436764 -15.104927 11.750943 4.498385 5.424453 -7.101877 -38.006737 -9.371921 9.819323 32.735586 0.067551 6.293807 2.526115 0.159600 0.013080 -0.264340 18.508146 -10.975569 2.409914 2.199257 3.004517 -18.148328 -2.755578 -5.522253 41.553926 -0.487272 -6.149314 2.465396 0.024160 0.782910 0.150930 -3.904726 0.094889 -7.507264 5.508593 4.626492 9.540514 -6.191434 5.879530 1.468836 1.159718 -2.481844 -6.130453 -4.595069 -2.641147 26.221259 6.824890 -7.941070 1.047890 -15.961940 6.581943 -0.283984 -58.653967 -9.798443 3.491399 -64.637368 -63.131608 38.451857 -3.778463 3.686587 0.086740 0.359080 -0.360180 0.458770 13.019217 -3.058771 3.065289 55.148849 -4.663284 -9.803317 11.067970 29.524318 0.649205 2.189930 -1.579448 -0.200050 0.283070 -0.002910 0.215440 
-1.179150 16.778710 -2.292400 -12.346959 -23.259231 7.454845 -15.138401 11.700437 4.354633 5.946297 -6.686132 -37.570500 -9.359477 10.093330 33.011565 0.050926 6.375091 2.472045 0.223220 0.080360 -0.206740 18.506992 -10.702649 2.708624 2.220641 5.073850 -21.974563 -2.831593 -6.619456 50.894960 -0.838332 -7.560994 1.962890 0.063420 0.730810 0.147900 -3.889146 -0.064316 -7.683048 5.512094 4.257471 10.652854 -5.993252 5.627042 1.574196 1.242356 -2.424840 -6.048423 -4.634105 -2.322266 26.808709 7.152310 -7.513900 -0.346730 -16.269638 6.160834 -0.540004 -57.248348 -10.224844 2.514669 -60.823870 -62.436004 35.256440 -3.725425 3.675093 0.131650 0.318050 -0.316530 0.461740 13.182084 -2.734165 3.103192 53.904097 -4.351139 -10.006246 11.495437 32.159542 1.057450 2.159921 -1.607651 -0.194440 0.283120 -0.036340 0.197230 
-1.228880 16.700220 -2.261940 -12.828396 -23.214328 6.117125 -15.183837 11.635632 4.237379 6.362851 -6.496848 -37.296057 -8.712525 10.580411 35.083700 0.140885 6.688478 2.349252 0.263730 0.145770 -0.163220 18.498080 -10.368128 3.051947 1.044238 7.060054 -25.898416 -1.964660 -8.735574 59.974243 -1.245984 -9.123501 1.459740 0.077660 0.676510 0.133800 -3.850641 -0.301342 -7.945904 5.428123 3.709487 12.317750 -5.635735 5.200098 1.315781 1.239629 -2.549041 -6.121333 -5.135794 -1.977982 28.000233 7.509420 -7.226800 -1.492640 -16.216621 5.877866 -0.716087 -56.366400 -10.398361 1.365214 -55.834602 -60.522441 30.739891 -3.657618 3.631145 0.158050 0.269640 -0.255810 0.468040 13.173119 -2.333386 3.271166 52.604193 -4.393315 -10.525300 11.872757 35.910107 1.634178 2.149111 -1.623224 -0.169930 0.290290 -0.079910 0.201560 
-1.285250 16.609220 -2.221980 -12.888707 -22.659052 5.270334 -15.285675 11.448485 4.215584 7.083661 -6.646463 -37.827982 -8.872877 11.637126 37.796174 0.259274 7.334275 2.141624 0.265470 0.149160 -0.160310 18.473020 -9.906889 3.352262 -1.118592 8.677987 -30.328239 -0.707219 -11.549175 67.795948 -1.594526 -10.653609 1.004078 0.091000 0.687050 0.107630 -3.735900 -0.627779 -8.170918 4.386427 3.123785 12.817879 -4.676545 4.471998 1.173080 1.052952 -2.598014 -5.945615 -5.328467 -1.528755 28.227578 7.521910 -7.163330 -0.908940 -16.238737 5.845082 -0.934639 -55.508673 -10.220488 0.280202 -49.933657 -57.226949 25.322373 -3.646113 3.579055 0.148520 0.270600 -0.272560 0.474070 13.725471 -2.299141 3.159738 50.680568 -4.424314 -10.738147 12.167647 39.584570 2.219182 2.121452 -1.668670 -0.187820 0.308850 -0.091000 0.203000 
-1.336190 16.523240 -2.180240 -12.976607 -22.190579 4.274217 -15.369933 11.292721 4.237501 8.380517 -6.689214 -38.056264 -9.765511 13.101354 40.448594 0.440204 8.072175 1.898522 0.292120 0.199750 -0.135710 18.448083 -9.526008 3.572078 -3.417200 9.528231 -33.830165 0.191771 -14.084709 73.220184 -1.873160 -11.781672 0.692025 0.110920 0.664020 0.089570 -3.633386 -0.923227 -8.384034 3.657126 2.528673 13.396987 -4.028221 3.751080 1.035592 0.964988 -2.555427 -5.776447 -5.497764 -1.263951 28.959191 7.094800 -6.817430 -0.577940 -16.617997 5.585120 -1.198616 -54.138243 -10.775111 -0.043874 -45.187816 -54.394955 21.451578 -3.624487 3.534665 0.130110 0.261440 -0.256140 0.486780 14.408025 -2.187765 3.086622 49.396708 -4.412989 -11.079727 11.303073 43.681231 2.494368 2.101997 -1.720637 -0.172710 0.307420 -0.133130 0.212710 
-1.369650 16.466660 -2.141750 -13.114317 -21.831837 2.676450 -15.424785 11.300775 4.301447 9.829823 -6.659166 -37.503264 -10.944440 14.529327 42.540946 0.595667 8.748184 1.652281 0.318630 0.212550 -0.083540 18.397675 -9.321262 3.669226 -5.593427 9.544262 -35.438621 1.295575 -15.872331 74.799934 -2.010476 -12.218959 0.548009 0.094610 0.594380 0.110540 -3.486546 -1.247491 -8.614818 3.009892 1.926992 15.195514 -3.621053 3.123588 0.141110 1.082045 -2.485735 -5.718097 -5.897609 -0.746370 31.141505 6.933970 -6.330170 -1.143620 -17.793362 5.129085 -1.610177 -52.086156 -11.074371 -0.492111 -39.391735 -50.447935 16.980837 -3.595455 3.466606 0.179790 0.216260 -0.195140 0.471330 15.474675 -1.847057 3.181192 47.918422 -4.751220 -11.766338 9.977201 48.027034 2.602536 2.080983 -1.741070 -0.145790 0.271770 -0.153070 0.192040 
-1.395810 16.422270 -2.087840 -13.339170 -21.360823 1.231779 -15.431661 11.338226 4.359280 11.212720 -6.624631 -36.527347 -12.175312 15.799092 44.051845 0.730605 9.327314 1.458216 0.319750 0.188990 -0.039420 18.375206 -9.251127 3.681950 -7.699343 9.030398 -36.064356 2.845428 -17.202388 73.684801 -2.017556 -12.225505 0.520754 0.063130 0.550010 0.126160 -3.440565 -1.426062 -8.770084 3.160438 1.167918 16.524507 -4.086589 2.402170 -0.800944 1.367045 -2.482134 -5.619827 -6.340784 -0.285873 33.304912 6.353320 -5.890030 -1.172730 -18.879722 4.960758 -2.118466 -49.616386 -11.260193 -0.612953 -34.270985 -45.843618 13.250011 -3.596262 3.378054 0.220860 0.188840 -0.157650 0.447030 16.027008 -1.897949 3.249328 47.351529 -4.955593 -12.272217 9.334023 51.334864 2.716809 2.070021 -1.746548 -0.134510 0.249930 -0.155160 0.167670 
